<?xml version="1.0" encoding="UTF-8"?>
<svg xmlns="http://www.w3.org/2000/svg" height="16px" viewBox="0 0 16 16" width="16px"><g fill="#222222"><path d="M 7.9960938,0 C 3.5937497,0 0,3.59375 0,8 c 0,4.40625 3.5937497,8 7.9960938,8 4.4062502,0 7.9960942,-3.59375 7.9960942,-8 0,-4.40625 -3.589844,-8 -7.9960942,-8 z m 3.0859372,5.8613281 c 0.02701,-9.384e-4 0.05469,0 0.08203,0.00195 0.640626,0.042969 0.933594,0.8242188 0.476563,1.2773438 L 8,10.78125 c -0.292969,0.292969 -0.769531,0.292969 -1.0625,0 L 4.7617188,8.671875 c -0.707031,-0.707031 0.3554689,-1.769531 1.0625,-1.0625 L 7.46875,9.1875 10.578125,6.078125 c 0.136719,-0.133301 0.31485,-0.210228 0.503906,-0.2167969 z" /></g></svg>
