<?xml version="1.0" encoding="UTF-8"?>
<svg xmlns="http://www.w3.org/2000/svg" height="16px" viewBox="0 0 16 16" width="16px"><g fill="#222222"><path d="M 3,0 C 1.339844,0 0,1.339844 0,3 v 7 c 0,1.660156 1.339844,3 3,3 h 10 c 1.660156,0 3,-1.339844 3,-3 V 3 C 16,1.339844 14.660156,0 13,0 Z m 0,2 h 10 c 0.554688,0 1,0.445312 1,1 v 7 c 0,0.554688 -0.445312,1 -1,1 H 3 C 2.445312,11 2,10.554688 2,10 V 3 C 2,2.445312 2.445312,2 3,2 Z m 2,12 c -1.105469,0 -2,0.894531 -2,2 h 10 c 0,-1.105469 -0.894531,-2 -2,-2 z m 0,0" /><path d="m 8.4372084,3.0039057 c -0.011719,0.00169 -0.3260208,-0.030007 -0.618307,0.25619 l -2.6235349,2.62354 C 5.0313956,6.0476171 4.9391617,6.2696609 4.9391617,6.5019531 V 7.3764648 H 7.6788422 L 6.8350757,8.6404071 C 6.7428418,8.7838822 6.6916007,8.9546857 6.6950164,9.1254883 h -0.00681 V 10 H 7.5627115 C 7.5744275,9.99739 7.8979871,10.02677 8.1810183,9.7437311 L 10.804549,7.1202652 c 0.163971,-0.1639761 0.252789,-0.38602 0.252789,-0.6183121 h 0.0035 V 5.6274413 H 8.3244786 L 9.1648293,4.3634985 C 9.2604784,4.2200235 9.3117201,4.04922 9.3117201,3.8784173 V 3.0039057 Z" /></g>
</svg>
